#!OML:ASF F:\VICON\USERDATA\INSTALL\rory3\rory3.ASF
:FULLY-SPECIFIED
:DEGREES
76
root 0.613281 18.235 4.6546 3.02616 -7.3195 2.68449
lowerback 13.834 -0.494359 -2.71473
upperback -0.346125 -1.01822 1.00852
thorax -8.0855 -0.358404 2.82371
lowerneck -19.1809 -2.5974 -2.46117
upperneck 9.74746 -3.20168 2.40706
head 6.14308 -1.44322 0.826881
rclavicle 5.36719e-015 -1.70955e-014
rhumerus -55.8377 10.3935 -99.038
rradius 103.64
rwrist -8.19477
rhand -20.4374 38.9673
rfingers 7.12502
rthumb 5.91753 9.06996
lclavicle 5.36719e-015 -1.70955e-014
lhumerus -37.3086 -15.4698 94.677
lradius 110.423
lwrist 25.9891
lhand -29.419 2.97773
lfingers 7.12502
lthumb -2.75632 32.9397
rfemur -33.805 2.65482 25.3065
rtibia 32.2546
rfoot 0.304452 -2.674
rtoes -12.9999
lfemur 7.68052 -2.42353 -28.2053
ltibia 51.5399
lfoot 27.3615 -20.384
ltoes -1.64194
77
root 0.597538 18.1395 5.11954 2.32411 -7.94032 2.57097
lowerback 14.2882 -0.227332 -2.70291
upperback 0.0133288 -0.672061 0.994166
thorax -7.97773 -0.198291 2.73443
lowerneck -19.1803 -2.59426 -2.42039
upperneck 9.52992 -3.21652 2.4969
head 6.07444 -1.44215 0.848524
rclavicle -1.46107e-014 -7.55382e-015
rhumerus -54.6415 10.5195 -99.0937
rradius 103.27
rwrist -8.01182
rhand -20.2548 38.8079
rfingers 7.12502
rthumb 6.09386 8.91553
lclavicle -1.46107e-014 -7.55382e-015
lhumerus -37.3104 -15.5659 94.6376
lradius 109.041
lwrist 25.1396
lhand -29.5349 3.35729
lfingers 7.12502
lthumb -2.86828 33.3178
rfemur -32.9698 2.70254 25.8626
rtibia 34.2253
rfoot 0.348143 0.0890483
rtoes 0.474313
lfemur 6.85628 -1.29369 -27.5414
ltibia 54.7873
lfoot 26.8199 -19.2281
ltoes 3.92423
78
root 0.565947 18.0161 5.57217 1.05315 -9.65888 2.67918
lowerback 15.4274 0.508956 -3.4675
upperback 0.351797 0.144671 1.04867
thorax -8.31115 0.22937 3.06308
lowerneck -18.8133 -2.6206 -2.39907
upperneck 9.42654 -3.24305 2.35295
head 5.97997 -1.46966 0.800008
rclavicle 1.37161e-014 -3.18055e-015
rhumerus -53.7478 10.7448 -99.1365
rradius 102.902
rwrist -7.958
rhand -20.2562 38.6128
rfingers 7.12502
rthumb 6.09252 8.72039
lclavicle 1.37161e-014 -3.18055e-015
lhumerus -37.77 -15.2547 94.8105
lradius 107.858
lwrist 24.7009
lhand -30.2156 4.14355
lfingers 7.12502
lthumb -3.52567 34.0941
rfemur -31.6408 3.47148 26.2846
rtibia 36.6358
rfoot -1.27769 3.01977
rtoes 9.75267
lfemur 6.68985 1.18358 -26.9327
ltibia 58.0899
lfoot 24.8564 -18.6613
ltoes 7.32871
79
root 0.558384 17.8939 6.0372 0.962576 -9.181 2.48571
lowerback 15.5238 0.325414 -3.11308
upperback 0.240091 -0.0313584 1.1388
thorax -8.47235 0.137252 2.99949
lowerneck -18.5813 -2.59734 -2.31585
upperneck 9.722 -3.20108 2.05569
head 6.0296 -1.4715 0.696851
rclavicle -1.13307e-014 0
rhumerus -53.1929 11.0541 -99.2948
rradius 102.668
rwrist -7.76909
rhand -20.6174 38.7675
rfingers 7.12502
rthumb 5.74373 8.86531
lclavicle -1.13307e-014 0
lhumerus -40.386 -16.3139 97.1611
lradius 108.298
lwrist 33.7147
lhand -35.8235 -4.49579
lfingers 7.12502
lthumb -8.93951 25.2948
rfemur -31.3058 3.12909 26.6823
rtibia 39.2557
rfoot -3.04696 3.09658
rtoes 12.8171
lfemur 5.18226 1.62099 -25.8586
ltibia 61.5181
lfoot 22.8973 -19.8562
ltoes 3.52819
80
root 0.554793 17.7456 6.50088 0.883386 -8.86222 2.15364
lowerback 15.4165 0.220443 -2.55374
upperback 0.284473 -0.0627307 1.19357
thorax -8.36079 0.0978029 2.74548
lowerneck -18.833 -2.57663 -2.26382
upperneck 10.23 -3.18549 2.02732
head 6.23186 -1.46069 0.676175
rclavicle 1.05356e-014 -1.19271e-015
rhumerus -52.2054 11.323 -99.3601
rradius 102.322
rwrist -7.78837
rhand -20.8349 39.0741
rfingers 7.12502
rthumb 5.53378 9.1664
lclavicle 1.05356e-014 -1.19271e-015
lhumerus -39.7888 -14.7943 95.9743
lradius 106.26
lwrist 28.0298
lhand -31.1578 0.898907
lfingers 7.12502
lthumb -4.43551 30.8325
rfemur -30.8012 3.21611 27.211
rtibia 41.9467
rfoot -5.79676 0.332288
rtoes 10.3461
lfemur 3.61579 2.14758 -24.7171
ltibia 65.0702
lfoot 19.6 -20.1965
ltoes -6.22655
81
root 0.526641 17.6542 6.99112 0.590352 -10.0516 2.00818
lowerback 15.1322 0.734922 -2.66678
upperback 0.545181 0.609598 1.23422
thorax -7.9648 0.417444 2.70214
lowerneck -18.9529 -2.60715 -2.41517
upperneck 10.4257 -3.22066 2.24044
head 6.32153 -1.46393 0.763115
rclavicle -1.28216e-014 7.15625e-015
rhumerus -50.8596 11.5983 -99.3954
rradius 101.815
rwrist -7.95061
rhand -20.6026 38.9811
rfingers 7.12502
rthumb 5.75801 9.07931
lclavicle -1.28216e-014 7.15625e-015
lhumerus -39.8212 -14.0852 95.5979
lradius 104.881
lwrist 25.8673
lhand -29.3105 3.78157
lfingers 7.12502
lthumb -2.6516 33.7448
rfemur -29.9313 4.85702 27.5109
rtibia 44.4422
rfoot -8.38953 -0.112812
rtoes 12.3279
lfemur 2.21958 4.06817 -23.7143
ltibia 68.3791
lfoot 17.6412 -17.5136
ltoes -4.11822
82
root 0.489365 17.5869 7.41681 0.550962 -9.19728 1.70851
lowerback 15.8365 0.639861 -2.52332
upperback 0.472718 0.508162 1.41552
thorax -8.4325 0.375129 2.84002
lowerneck -18.9716 -2.69713 -2.4875
upperneck 10.4386 -3.31988 2.22086
head 6.33182 -1.51639 0.75726
rclavicle -3.97569e-015 -1.66979e-014
rhumerus -49.5244 11.7826 -99.349
rradius 101.334
rwrist -8.26767
rhand -20.6379 38.5984
rfingers 7.12502
rthumb 5.72393 8.6957
lclavicle -3.97569e-015 -1.66979e-014
lhumerus -40.9294 -13.52 96.0597
lradius 104.248
lwrist 25.9263
lhand -29.124 4.42238
lfingers 7.12502
lthumb -2.4715 34.3878
rfemur -29.5738 5.28389 27.9141
rtibia 46.5857
rfoot -10.619 -1.76879
rtoes 12.7365
lfemur -0.245969 4.05096 -22.4043
ltibia 71.9167
lfoot 17.1099 -15.6553
ltoes 1.60226
83
root 0.472398 17.4732 7.8444 0.761873 -8.1455 1.03788
lowerback 16.1735 0.360241 -1.69394
upperback 0.411613 0.301695 1.60474
thorax -8.66996 0.250387 2.62147
lowerneck -19.3227 -2.73587 -2.21457
upperneck 10.5518 -3.38968 1.91266
head 6.41623 -1.56254 0.602298
rclavicle 2.31584e-014 -7.15625e-015
rhumerus -48.2453 12.0434 -99.4486
rradius 101.023
rwrist -8.7428
rhand -20.6571 38.0022
rfingers 7.12502
rthumb 5.7054 8.09902
lclavicle 2.31584e-014 -7.15625e-015
lhumerus -41.729 -13.0881 96.4245
lradius 103.459
lwrist 26.1424
lhand -28.9333 4.02459
lfingers 7.12502
lthumb -2.28729 33.9921
rfemur -29.0171 5.36571 28.7752
rtibia 48.3006
rfoot -12.6574 -4.6264
rtoes 12.7692
lfemur -2.94732 3.83349 -20.8002
ltibia 75.6443
lfoot 15.6201 -15.0644
ltoes -0.371837
84
root 0.452269 17.3594 8.27396 0.663475 -8.33777 -0.160742
lowerback 16.6327 0.509335 -0.6079
upperback 0.505069 0.730957 1.94731
thorax -8.84185 0.419479 2.27268
lowerneck -19.4314 -2.77517 -2.13089
upperneck 10.5593 -3.44399 1.79395
head 6.43352 -1.59489 0.543331
rclavicle -7.15625e-015 8.34896e-015
rhumerus -46.9071 12.3786 -99.4686
rradius 100.575
rwrist -9.26528
rhand -21.0342 37.614
rfingers 7.12502
rthumb 5.34133 7.70129
lclavicle -7.15625e-015 8.34896e-015
lhumerus -42.1002 -13.0999 96.651
lradius 102.221
lwrist 26.1645
lhand -29.0223 3.58943
lfingers 7.12502
lthumb -2.37327 33.556
rfemur -27.3919 6.12017 30.3967
rtibia 49.5463
rfoot -14.5169 -6.40308
rtoes 14.518
lfemur -5.05568 4.87193 -18.5372
ltibia 79.2912
lfoot 13.2531 -14.2122
ltoes -3.28902
85
root 0.433228 17.2571 8.67068 1.22467 -8.31214 -2.14812
lowerback 17.0362 0.539813 1.11682
upperback 0.314156 1.17234 2.56236
thorax -9.27819 0.572643 1.85133
lowerneck -19.5072 -2.80015 -2.02919
upperneck 10.5396 -3.47747 1.63168
head 6.43501 -1.62065 0.470229
rclavicle 2.05742e-014 3.81667e-014
rhumerus -45.504 12.8246 -99.428
rradius 100.06
rwrist -9.83857
rhand -20.9351 37.5751
rfingers 7.12502
rthumb 5.43703 7.66488
lclavicle 2.05742e-014 3.81667e-014
lhumerus -42.8557 -12.902 96.9821
lradius 101.162
lwrist 26.2308
lhand -28.8898 3.3919
lfingers 7.12502
lthumb -2.24524 33.3598
rfemur -26.5291 6.55304 32.9878
rtibia 50.4142
rfoot -15.7287 -8.43664
rtoes 9.82618
lfemur -8.41402 5.86194 -15.2552
ltibia 82.9507
lfoot 11.2413 -13.1027
ltoes -3.39543
86
root 0.419047 17.1723 9.06631 1.73508 -7.99147 -3.68139
lowerback 17.2871 0.483578 2.4675
upperback 0.275748 1.42156 3.04838
thorax -9.45118 0.641391 1.54973
lowerneck -19.9148 -2.80789 -1.82219
upperneck 10.3969 -3.50282 1.43864
head 6.44733 -1.63928 0.36823
rclavicle 2.65378e-014 7.15625e-015
rhumerus -43.8652 13.427 -99.3211
rradius 99.7105
rwrist -10.1893
rhand -20.6532 37.8876
rfingers 7.12502
rthumb 5.70923 7.98454
lclavicle 2.65378e-014 7.15625e-015
lhumerus -43.4658 -12.4976 97.1673
lradius 100.273
lwrist 26.4611
lhand -30.0908 3.77948
lfingers 7.12502
lthumb -3.40517 33.732
rfemur -25.7134 6.63507 34.949
rtibia 51.0193
rfoot -17.1699 -10.5178
rtoes 4.3874
lfemur -11.8192 6.58078 -12.649
ltibia 86.1677
lfoot 9.59763 -11.7446
ltoes -1.82549
87
root 0.41497 17.1293 9.54864 1.44231 -6.93324 -3.28577
lowerback 17.0516 0.251967 2.50783
upperback 0.507006 1.08786 2.89408
thorax -9.05578 0.479325 1.43967
lowerneck -20.1235 -2.83673 -1.63254
upperneck 10.2213 -3.57318 1.3543
head 6.41982 -1.67231 0.301622
rclavicle -2.48481e-015 -2.78299e-014
rhumerus -42.5003 14.0378 -99.2919
rradius 99.5703
rwrist -9.87634
rhand -21.0183 38.1214
rfingers 7.12502
rthumb 5.35672 8.20906
lclavicle -2.48481e-015 -2.78299e-014
lhumerus -44.2408 -12.1855 97.2992
lradius 99.7147
lwrist 26.1464
lhand -30.3629 5.9442
lfingers 7.12502
lthumb -3.66792 35.8924
rfemur -23.8428 5.63303 34.5635
rtibia 51.4928
rfoot -19.8643 -11.3216
rtoes 5.23487
lfemur -13.7327 6.00937 -12.8674
ltibia 88.1806
lfoot 8.0015 -9.67969
ltoes 0.301689
